<svg id="approve" xmlns="http://www.w3.org/2000/svg" width="22.717" height="21.99" viewBox="0 0 22.717 21.99">
  <path id="Path_12" data-name="Path 12" d="M189.33,53.795c-.412,1.594-.838,3.238-1.1,4.457h3.254V51.94a.242.242,0,0,1,.483,0v6.312h3.253c-.258-1.218-.683-2.862-1.1-4.455-.465-1.8-.946-3.657-1.2-4.948a.242.242,0,0,1,.132-.264,3.01,3.01,0,0,0,1.713-2.725,3.045,3.045,0,0,0-6.089,0,3.009,3.009,0,0,0,1.713,2.725.242.242,0,0,1,.132.264C190.276,50.141,189.8,52,189.33,53.795Zm2.415-9.619c.016,0,1.558.123,1.724,2.155a.242.242,0,0,1-.221.26h-.02a.242.242,0,0,1-.241-.222c-.132-1.62-1.261-1.711-1.273-1.712a.242.242,0,0,1,.031-.482Z" transform="translate(-180.371 -42.831)" fill="#fff"/>
  <path id="Path_13" data-name="Path 13" d="M110.887,354.915H113V353.05a1.872,1.872,0,0,0-1.875-1.865h-12.7a1.872,1.872,0,0,0-1.875,1.865v1.865h14.339Z" transform="translate(-93.415 -335.281)" fill="#fff"/>
  <path id="Path_14" data-name="Path 14" d="M58.258,434.255H53.014v-1.389H41.269v1.389H36.025a.242.242,0,1,0,0,.483H58.258a.242.242,0,1,0,0-.483Z" transform="translate(-35.783 -412.749)" fill="#fff"/>
</svg>
