<svg xmlns="http://www.w3.org/2000/svg" width="20.675" height="20" viewBox="0 0 20.675 20">
  <g id="approve" transform="translate(0.016 0.016)">
    <path id="Path_12" data-name="Path 12" d="M189.33,53.795c-.412,1.594-.838,3.238-1.1,4.457h3.254V51.94a.242.242,0,0,1,.483,0v6.312h3.253c-.258-1.218-.683-2.862-1.1-4.455-.465-1.8-.946-3.657-1.2-4.948a.242.242,0,0,1,.132-.264,3.01,3.01,0,0,0,1.713-2.725,3.045,3.045,0,1,0-6.09,0,3.009,3.009,0,0,0,1.713,2.725.242.242,0,0,1,.132.264C190.276,50.141,189.8,52,189.33,53.795Zm2.415-9.619c.016,0,1.558.123,1.724,2.155a.242.242,0,0,1-.221.26h-.02a.242.242,0,0,1-.241-.222c-.132-1.62-1.261-1.711-1.273-1.712a.242.242,0,0,1,.031-.482Z" transform="translate(-181.407 -42.831)" fill="#fff"/>
    <path id="Path_13" data-name="Path 13" d="M109.08,354.915h1.847V353.05a1.765,1.765,0,0,0-1.639-1.865h-11.1a1.764,1.764,0,0,0-1.639,1.865v1.865h12.532Z" transform="translate(-93.415 -337.286)" fill="#fff"/>
    <path id="Path_14" data-name="Path 14" d="M56.208,434.255H51.442v-1.389H40.768v1.389H36a.215.215,0,0,0-.2.116.263.263,0,0,0,0,.251.215.215,0,0,0,.2.116H56.208a.215.215,0,0,0,.2-.116.263.263,0,0,0,0-.251.215.215,0,0,0-.2-.116Z" transform="translate(-35.783 -414.754)" fill="#fff"/>
  </g>
</svg>
