<svg xmlns="http://www.w3.org/2000/svg" xmlns:xlink="http://www.w3.org/1999/xlink" width="475" height="150" viewBox="0 0 475 150">
  <defs>
    <linearGradient id="linear-gradient" x1="1" y1="1" x2="0" y2="1" gradientUnits="objectBoundingBox">
      <stop offset="0" stop-color="#71a54b"/>
      <stop offset="1" stop-color="#aac993"/>
    </linearGradient>
    <linearGradient id="linear-gradient-2" x1="1" y1="1" x2="0" y2="1" gradientUnits="objectBoundingBox">
      <stop offset="0" stop-color="#fb0"/>
      <stop offset="1" stop-color="#ff9558"/>
    </linearGradient>
  </defs>
  <g id="bar-chart4" transform="translate(-405.5 -192)">
    <g id="Group_26" data-name="Group 26" transform="translate(0.5 8)">
      <line id="Line_9" data-name="Line 9" y2="130" transform="translate(405.5 184.5)" fill="none" stroke="#c5c5c5" stroke-width="1"/>
      <line id="Line_10" data-name="Line 10" y2="130" transform="translate(879.5 184.5)" fill="none" stroke="#c5c5c5" stroke-width="1"/>
      <line id="Line_11" data-name="Line 11" y2="130" transform="translate(761.5 184.5)" fill="none" stroke="#c5c5c5" stroke-width="1"/>
      <line id="Line_12" data-name="Line 12" y2="130" transform="translate(643 184.5)" fill="none" stroke="#c5c5c5" stroke-width="1"/>
      <line id="Line_13" data-name="Line 13" y2="130" transform="translate(525 184.5)" fill="none" stroke="#c5c5c5" stroke-width="1"/>
      <line id="Line_14" data-name="Line 14" x2="474" transform="translate(405.5 184.5)" fill="none" stroke="#ececec" stroke-width="1"/>
      <line id="Line_15" data-name="Line 15" x2="474" transform="translate(405.5 206.5)" fill="none" stroke="#ececec" stroke-width="1"/>
      <line id="Line_16" data-name="Line 16" x2="474" transform="translate(405.5 227.5)" fill="none" stroke="#ececec" stroke-width="1"/>
      <line id="Line_17" data-name="Line 17" x2="474" transform="translate(405.5 249.5)" fill="none" stroke="#ececec" stroke-width="1"/>
      <line id="Line_18" data-name="Line 18" x2="474" transform="translate(405.5 271.5)" fill="none" stroke="#ececec" stroke-width="1"/>
      <line id="Line_19" data-name="Line 19" x2="474" transform="translate(405.5 292.5)" fill="none" stroke="#ececec" stroke-width="1"/>
      <line id="Line_20" data-name="Line 20" x2="474" transform="translate(405.5 314.5)" fill="none" stroke="#c5c5c5" stroke-width="1"/>
    </g>
    <text id="Q1" transform="translate(466 339)" fill="#888" font-size="12" font-family="Roboto-Regular, Roboto"><tspan x="-7.494" y="0">Q1</tspan></text>
    <text id="Q2" transform="translate(585 339)" fill="#888" font-size="12" font-family="Roboto-Regular, Roboto"><tspan x="-7.494" y="0">Q2</tspan></text>
    <text id="Jul" transform="translate(704 339)" fill="#888" font-size="12" font-family="Roboto-Regular, Roboto"><tspan x="-8.074" y="0">Jul</tspan></text>
    <text id="Total" transform="translate(823 339)" fill="#888" font-size="12" font-family="Roboto-Regular, Roboto"><tspan x="-13.392" y="0">Total</tspan></text>
    <g id="Group_28" data-name="Group 28" transform="translate(0 8)">
      <g id="Group_27" data-name="Group 27" transform="translate(2)">
        <path id="Rectangle_35" data-name="Rectangle 35" d="M3,0h9a3,3,0,0,1,3,3V66a0,0,0,0,1,0,0H0a0,0,0,0,1,0,0V3A3,3,0,0,1,3,0Z" transform="translate(432 248)" fill="url(#linear-gradient)"/>
        <path id="Rectangle_36" data-name="Rectangle 36" d="M3,0h9a3,3,0,0,1,3,3V59a0,0,0,0,1,0,0H0a0,0,0,0,1,0,0V3A3,3,0,0,1,3,0Z" transform="translate(479 255)" fill="url(#linear-gradient-2)"/>
        <text id="_947" data-name="947" transform="translate(440 244)" fill="#888" font-size="12" font-family="Roboto-Regular, Roboto"><tspan x="-10.107" y="0">947</tspan></text>
        <text id="_931" data-name="931" transform="translate(487 252)" fill="#888" font-size="12" font-family="Roboto-Regular, Roboto"><tspan x="-10.107" y="0">931</tspan></text>
      </g>
    </g>
    <g id="Group_29" data-name="Group 29" transform="translate(119 8)">
      <g id="Group_27-2" data-name="Group 27" transform="translate(2 6)">
        <path id="Rectangle_35-2" data-name="Rectangle 35" d="M3,0h9a3,3,0,0,1,3,3V37a0,0,0,0,1,0,0H0a0,0,0,0,1,0,0V3A3,3,0,0,1,3,0Z" transform="translate(432 271)" fill="url(#linear-gradient)"/>
        <path id="Rectangle_36-2" data-name="Rectangle 36" d="M3,0h9a3,3,0,0,1,3,3V47a0,0,0,0,1,0,0H0a0,0,0,0,1,0,0V3A3,3,0,0,1,3,0Z" transform="translate(479 261)" fill="url(#linear-gradient-2)"/>
        <text id="_774" data-name="774" transform="translate(440 265)" fill="#888" font-size="12" font-family="Roboto-Regular, Roboto"><tspan x="-10.107" y="0">774</tspan></text>
        <text id="_823" data-name="823" transform="translate(487 258)" fill="#888" font-size="12" font-family="Roboto-Regular, Roboto"><tspan x="-10.107" y="0">823</tspan></text>
      </g>
    </g>
    <g id="Group_30" data-name="Group 30" transform="translate(238 8)">
      <g id="Group_27-3" data-name="Group 27" transform="translate(2 6)">
        <path id="Rectangle_35-3" data-name="Rectangle 35" d="M3,0h9a3,3,0,0,1,3,3v8a0,0,0,0,1,0,0H0a0,0,0,0,1,0,0V3A3,3,0,0,1,3,0Z" transform="translate(432 297)" fill="url(#linear-gradient)"/>
        <path id="Rectangle_36-3" data-name="Rectangle 36" d="M3,0h9a3,3,0,0,1,3,3V9a0,0,0,0,1,0,0H0A0,0,0,0,1,0,9V3A3,3,0,0,1,3,0Z" transform="translate(479 299)" fill="url(#linear-gradient-2)"/>
        <text id="_251" data-name="251" transform="translate(440 290)" fill="#888" font-size="12" font-family="Roboto-Regular, Roboto"><tspan x="-10.107" y="0">251</tspan></text>
        <text id="_165" data-name="165" transform="translate(486 294)" fill="#888" font-size="12" font-family="Roboto-Regular, Roboto"><tspan x="-10.107" y="0">165</tspan></text>
      </g>
    </g>
    <g id="Group_31" data-name="Group 31" transform="translate(357 8)">
      <g id="Group_27-4" data-name="Group 27" transform="translate(2 -83)">
        <path id="Rectangle_35-4" data-name="Rectangle 35" d="M3,0h9a3,3,0,0,1,3,3V104a0,0,0,0,1,0,0H0a0,0,0,0,1,0,0V3A3,3,0,0,1,3,0Z" transform="translate(432 293)" fill="url(#linear-gradient)"/>
        <path id="Rectangle_36-4" data-name="Rectangle 36" d="M3,0h9a3,3,0,0,1,3,3V98a0,0,0,0,1,0,0H0a0,0,0,0,1,0,0V3A3,3,0,0,1,3,0Z" transform="translate(479 299)" fill="url(#linear-gradient-2)"/>
      </g>
      <text id="_12_033" data-name="12,033" transform="translate(442 203)" fill="#888" font-size="12" font-family="Roboto-Regular, Roboto"><tspan x="-18.023" y="0">12,033</tspan></text>
      <text id="_11_104" data-name="11,104" transform="translate(489 207)" fill="#888" font-size="12" font-family="Roboto-Regular, Roboto"><tspan x="-18.023" y="0">11,104</tspan></text>
    </g>
  </g>
</svg>
