<svg xmlns="http://www.w3.org/2000/svg" xmlns:xlink="http://www.w3.org/1999/xlink" width="475" height="150" viewBox="0 0 475 150">
  <defs>
    <linearGradient id="linear-gradient" x1="1" y1="1" x2="0" y2="1" gradientUnits="objectBoundingBox">
      <stop offset="0" stop-color="#475489"/>
      <stop offset="1" stop-color="#4a74ea"/>
    </linearGradient>
  </defs>
  <g id="bar-chart3" transform="translate(-406 -192)">
    <g id="Group_26" data-name="Group 26" transform="translate(0.5 8)">
      <line id="Line_9" data-name="Line 9" y2="130" transform="translate(406 184.5)" fill="none" stroke="#c5c5c5" stroke-width="1"/>
      <line id="Line_10" data-name="Line 10" y2="130" transform="translate(880 184.5)" fill="none" stroke="#c5c5c5" stroke-width="1"/>
      <line id="Line_11" data-name="Line 11" y2="130" transform="translate(722 184.5)" fill="none" stroke="#c5c5c5" stroke-width="1"/>
      <line id="Line_12" data-name="Line 12" y2="130" transform="translate(564 184.5)" fill="none" stroke="#c5c5c5" stroke-width="1"/>
      <line id="Line_14" data-name="Line 14" x2="474" transform="translate(405.5 184.5)" fill="none" stroke="#ececec" stroke-width="1"/>
      <line id="Line_15" data-name="Line 15" x2="474" transform="translate(405.5 206.5)" fill="none" stroke="#ececec" stroke-width="1"/>
      <line id="Line_16" data-name="Line 16" x2="474" transform="translate(405.5 227.5)" fill="none" stroke="#ececec" stroke-width="1"/>
      <line id="Line_17" data-name="Line 17" x2="474" transform="translate(405.5 249.5)" fill="none" stroke="#ececec" stroke-width="1"/>
      <line id="Line_18" data-name="Line 18" x2="474" transform="translate(405.5 271.5)" fill="none" stroke="#ececec" stroke-width="1"/>
      <line id="Line_19" data-name="Line 19" x2="474" transform="translate(405.5 292.5)" fill="none" stroke="#ececec" stroke-width="1"/>
      <line id="Line_20" data-name="Line 20" x2="474" transform="translate(405.5 314.5)" fill="none" stroke="#c5c5c5" stroke-width="1"/>
      <text id="HO_Managed" data-name="HO Managed" transform="translate(485.5 331)" fill="#888" font-size="12" font-family="Roboto-Regular, Roboto"><tspan x="-34.893" y="0">HO Managed</tspan></text>
      <text id="Non-HO_Managed" data-name="Non-HO Managed" transform="translate(643.5 331)" fill="#888" font-size="12" font-family="Roboto-Regular, Roboto"><tspan x="-47.558" y="0">Non-HO Managed</tspan></text>
      <text id="Total_Active" data-name="Total Active" transform="translate(801.5 331)" fill="#888" font-size="12" font-family="Roboto-Regular, Roboto"><tspan x="-31.395" y="0">Total Active</tspan></text>
      <path id="Rectangle_37" data-name="Rectangle 37" d="M3,0h9a3,3,0,0,1,3,3V104a0,0,0,0,1,0,0H0a0,0,0,0,1,0,0V3A3,3,0,0,1,3,0Z" transform="translate(793.5 210)" fill="url(#linear-gradient)"/>
      <text id="_2_709" data-name="2,709" transform="translate(801.5 203)" fill="#888" font-size="12" font-family="Roboto-Regular, Roboto"><tspan x="-14.654" y="0">2,709</tspan></text>
      <g id="Group_47" data-name="Group 47" transform="translate(201.5)">
        <path id="Rectangle_35" data-name="Rectangle 35" d="M3,0h9a3,3,0,0,1,3,3V37a0,0,0,0,1,0,0H0a0,0,0,0,1,0,0V3A3,3,0,0,1,3,0Z" transform="translate(435 277)" fill="url(#linear-gradient)"/>
        <text id="_714" data-name="714" transform="translate(442 271)" fill="#888" font-size="12" font-family="Roboto-Regular, Roboto"><tspan x="-10.107" y="0">714</tspan></text>
      </g>
      <g id="Group_48" data-name="Group 48" transform="translate(43.5)">
        <path id="Rectangle_35-2" data-name="Rectangle 35" d="M3,0h9a3,3,0,0,1,3,3V78a0,0,0,0,1,0,0H0a0,0,0,0,1,0,0V3A3,3,0,0,1,3,0Z" transform="translate(435 236)" fill="url(#linear-gradient)"/>
        <text id="_1_993" data-name="1,993" transform="translate(442 233)" fill="#888" font-size="12" font-family="Roboto-Regular, Roboto"><tspan x="-14.654" y="0">1,993</tspan></text>
      </g>
    </g>
  </g>
</svg>
