<svg xmlns="http://www.w3.org/2000/svg" width="20" height="22.857" viewBox="0 0 20 22.857">
  <path id="calendar" d="M7.143,1.429V2.857h5.714V1.429a1.429,1.429,0,1,1,2.857,0V2.857h2.143A2.143,2.143,0,0,1,20,5V7.143H0V5A2.143,2.143,0,0,1,2.143,2.857H4.286V1.429a1.429,1.429,0,1,1,2.857,0ZM0,8.571H20V20.714a2.143,2.143,0,0,1-2.143,2.143H2.143A2.143,2.143,0,0,1,0,20.714Zm2.857,5a.715.715,0,0,0,.714.714H5a.716.716,0,0,0,.714-.714V12.143A.716.716,0,0,0,5,11.429H3.571a.715.715,0,0,0-.714.714Zm5.714,0a.716.716,0,0,0,.714.714h1.429a.716.716,0,0,0,.714-.714V12.143a.716.716,0,0,0-.714-.714H9.286a.716.716,0,0,0-.714.714ZM15,11.429a.716.716,0,0,0-.714.714v1.429a.716.716,0,0,0,.714.714h1.429a.716.716,0,0,0,.714-.714V12.143a.716.716,0,0,0-.714-.714ZM2.857,19.286A.715.715,0,0,0,3.571,20H5a.716.716,0,0,0,.714-.714V17.857A.716.716,0,0,0,5,17.143H3.571a.715.715,0,0,0-.714.714Zm6.429-2.143a.716.716,0,0,0-.714.714v1.429A.716.716,0,0,0,9.286,20h1.429a.716.716,0,0,0,.714-.714V17.857a.716.716,0,0,0-.714-.714Zm5,2.143A.716.716,0,0,0,15,20h1.429a.716.716,0,0,0,.714-.714V17.857a.716.716,0,0,0-.714-.714H15a.716.716,0,0,0-.714.714Z" fill="#023047"/>
</svg>
