<svg xmlns="http://www.w3.org/2000/svg" width="32.985" height="21.99" viewBox="0 0 32.985 21.99">
  <path id="data_icon" d="M32.985,77.744v5.5a2.749,2.749,0,0,1-2.749,2.749H2.749A2.749,2.749,0,0,1,0,83.241v-5.5a2.749,2.749,0,0,1,2.749-2.749H30.236A2.749,2.749,0,0,1,32.985,77.744Zm-2.749-4.581A4.556,4.556,0,0,1,32,73.515l-5.528-8.291A2.749,2.749,0,0,0,24.184,64H8.8a2.749,2.749,0,0,0-2.287,1.224L.986,73.515a4.556,4.556,0,0,1,1.762-.353Zm-2.749,5.5a1.832,1.832,0,1,0,1.832,1.832A1.832,1.832,0,0,0,27.487,78.66Zm-5.5,0a1.832,1.832,0,1,0,1.832,1.832A1.832,1.832,0,0,0,21.99,78.66Z" transform="translate(0 -64)" fill="#fff"/>
</svg>
