<svg xmlns="http://www.w3.org/2000/svg" width="29.996" height="20" viewBox="0 0 29.996 20">
  <path id="data_icon" d="M30,76.5v5A2.5,2.5,0,0,1,27.5,84H2.5A2.5,2.5,0,0,1,0,81.5v-5A2.5,2.5,0,0,1,2.5,74h25A2.5,2.5,0,0,1,30,76.5Zm-2.5-4.166a4.143,4.143,0,0,1,1.6.32l-5.027-7.54A2.5,2.5,0,0,0,21.992,64H8a2.5,2.5,0,0,0-2.08,1.113L.9,72.653a4.143,4.143,0,0,1,1.6-.321Zm-2.5,5a1.661,1.661,0,1,0,1.179.486A1.666,1.666,0,0,0,25,77.334Zm-5,0A1.666,1.666,0,1,0,21.661,79a1.666,1.666,0,0,0-1.666-1.666Z" transform="translate(0 -64)" fill="#fff"/>
</svg>
