<svg xmlns="http://www.w3.org/2000/svg" width="10.8" height="12" viewBox="0 0 10.8 12">
  <g id="download-icon" transform="translate(-3 -2)">
    <path id="Path_8" data-name="Path 8" d="M12.824,5.242a.615.615,0,0,0-.848,0L10.6,6.618V2.6a.6.6,0,0,0-1.2,0V6.618L8.024,5.242a.6.6,0,0,0-.848.848L10,8.9l2.825-2.81A.6.6,0,0,0,12.824,5.242Z" transform="translate(-1.6)" fill="#fff"/>
    <path id="Path_9" data-name="Path 9" d="M13.792,13.2a.588.588,0,0,0-.023-.19l-1.2-3.6A.6.6,0,0,0,12,9h-.131a1.19,1.19,0,0,1-.22.315l-.889.885h.809l1,3H4.232l1-3h.809l-.89-.885A1.176,1.176,0,0,1,4.931,9H4.8a.6.6,0,0,0-.569.41l-1.2,3.6a.588.588,0,0,0-.023.19C3,13.2,3,16.2,3,16.2a.6.6,0,0,0,.6.6h9.6a.6.6,0,0,0,.6-.6S13.8,13.2,13.792,13.2Z" transform="translate(0 -2.8)" fill="#fff"/>
  </g>
</svg>
