<svg xmlns="http://www.w3.org/2000/svg" width="18.106" height="20" viewBox="0 0 18.106 20">
  <g id="edit-report" transform="translate(-48.19 -112.63)">
    <path id="Path_19" data-name="Path 19" d="M48.19,114.314a.971.971,0,0,1,.788-.754,1.382,1.382,0,0,1,.244-.019h4.6v-.91h3.733v.91h4.614a.945.945,0,0,1,1.024,1.016q0,4.553,0,9.105c0,.057,0,.114-.008.182H61.335v-8.429H50.071v14.107h5.61v1.845H55.44c-2.049,0-4.1-.012-6.147.007a1,1,0,0,1-1.1-.787Z" transform="translate(0)" fill="#fff"/>
    <path id="Path_20" data-name="Path 20" d="M386.173,554.255c0-.4,0-.8,0-1.2a.312.312,0,0,1,.073-.2q1.571-1.578,3.15-3.147a.907.907,0,0,1,.074-.061l1.3,1.306c-.125.128-.266.273-.409.416l-2.767,2.776c-.037.037-.076.072-.114.108Z" transform="translate(-326.076 -421.625)" fill="#fff"/>
    <path id="Path_21" data-name="Path 21" d="M155.5,378.62h7.451v1.841H155.5Z" transform="translate(-103.53 -256.62)" fill="#fff"/>
    <path id="Path_22" data-name="Path 22" d="M155.5,271.47h7.451v1.841H155.5Z" transform="translate(-103.53 -153.245)" fill="#fff"/>
    <path id="Path_23" data-name="Path 23" d="M155.44,485.77h3.709v1.836H155.44Z" transform="translate(-103.472 -359.995)" fill="#fff"/>
    <path id="Path_24" data-name="Path 24" d="M500.33,504.656c.228-.233.449-.476.688-.7a.941.941,0,0,1,1.458.5.92.92,0,0,1-.266.929l-.578.581Z" transform="translate(-436.212 -377.352)" fill="#fff"/>
  </g>
</svg>
