<svg id="info-icon" xmlns="http://www.w3.org/2000/svg" width="12" height="12" viewBox="0 0 12 12">
  <path id="Path_10" data-name="Path 10" d="M6,11.25A5.25,5.25,0,1,1,11.25,6,5.25,5.25,0,0,1,6,11.25ZM6,12A6,6,0,1,0,0,6,6,6,0,0,0,6,12Z" fill="#fff"/>
  <path id="Path_11" data-name="Path 11" d="M8.323,5.816l-1.718.215-.062.285.338.062c.22.053.264.132.216.352l-.553,2.6c-.146.673.079.989.606.989a1.553,1.553,0,0,0,1.1-.448l.066-.312a.831.831,0,0,1-.515.185c-.206,0-.281-.145-.228-.4ZM8.375,4.25a.75.75,0,1,1-.75-.75A.75.75,0,0,1,8.375,4.25Z" transform="translate(-1.625 -0.875)" fill="#fff"/>
</svg>
