<svg id="info" xmlns="http://www.w3.org/2000/svg" width="15" height="15" viewBox="0 0 15 15">
  <path id="Path_6" data-name="Path 6" d="M7.5,14.063A6.563,6.563,0,1,1,14.063,7.5,6.562,6.562,0,0,1,7.5,14.063ZM7.5,15A7.5,7.5,0,1,0,0,7.5,7.5,7.5,0,0,0,7.5,15Z" fill="#e65959"/>
  <path id="Path_7" data-name="Path 7" d="M8.93,6.248,6.64,6.5l-.082.338.45.074c.294.062.352.157.288.417L6.558,10.42c-.194.8.105,1.174.808,1.174a2.207,2.207,0,0,0,1.465-.532l.088-.37a1.2,1.2,0,0,1-.686.219c-.275,0-.375-.172-.3-.474ZM9,4.39a.95.95,0,0,1-1,.89.95.95,0,0,1-1-.89A.95.95,0,0,1,8,3.5.95.95,0,0,1,9,4.39Z" transform="translate(-0.481 0)" fill="#e65959"/>
</svg>
