<svg xmlns="http://www.w3.org/2000/svg" width="19.513" height="20" viewBox="0 0 19.513 20">
  <g id="Layer_x0020_1" transform="translate(-18.46 -8.351)">
    <path id="Path_15" data-name="Path 15" d="M36.973,15.4a.5.5,0,1,1,1,0v8.95a.5.5,0,0,1-.5.5H31.306v2.5H33.7a.5.5,0,0,1,0,1H22.736a.5.5,0,0,1,0-1h2.392v-2.5H18.96a.5.5,0,0,1-.5-.5V15.4a.5.5,0,1,1,1,0v8.45H36.973Zm-6.668,9.45H26.128v2.5H30.3ZM28.717,9.409v2.17h2.316A3.826,3.826,0,0,0,28.717,9.41Zm0,3.17v2.166h3.1a8.726,8.726,0,0,0-.382-2.165Zm0,3.167v2.167h2.715a8.726,8.726,0,0,0,.382-2.167Zm0,3.166v2.169a3.82,3.82,0,0,0,2.316-2.169Zm-1,2.169V18.912H25.4a3.82,3.82,0,0,0,2.316,2.168Zm0-3.17V15.745h-3.1A8.726,8.726,0,0,0,25,17.911Zm0-3.167V12.579H25a8.726,8.726,0,0,0-.382,2.167Zm0-3.167V9.409a3.826,3.826,0,0,0-2.316,2.17Zm3.737-1.26a7.1,7.1,0,0,1,.675,1.26h.7a5.927,5.927,0,0,0-1.378-1.259Zm1.02,2.262a9.856,9.856,0,0,1,.342,2.167h1.273a5.857,5.857,0,0,0-.614-2.167Zm.342,3.167a9.87,9.87,0,0,1-.342,2.167h1a5.857,5.857,0,0,0,.615-2.167Zm-.687,3.166a7.087,7.087,0,0,1-.675,1.26,5.933,5.933,0,0,0,1.378-1.26Zm-7.149,1.26a7.087,7.087,0,0,1-.675-1.26h-.7a5.933,5.933,0,0,0,1.378,1.258Zm-1.02-2.26a9.87,9.87,0,0,1-.342-2.167H22.345a5.857,5.857,0,0,0,.615,2.167h1Zm-.342-3.167a9.856,9.856,0,0,1,.342-2.166h-1a5.857,5.857,0,0,0-.615,2.167Zm.687-3.167a7.094,7.094,0,0,1,.675-1.26A5.927,5.927,0,0,0,23.6,11.579Zm3.911-3.227a6.894,6.894,0,1,1-6.894,6.894,6.894,6.894,0,0,1,6.894-6.894Z" fill="#fff"/>
  </g>
</svg>
