<svg xmlns="http://www.w3.org/2000/svg" width="14.683" height="20" viewBox="0 0 14.683 20">
  <path id="money-bag" d="M10.666,6.34H9.7a.667.667,0,0,0,0,1.334h.331a30.35,30.35,0,0,0-3.235,3.442,7.634,7.634,0,0,0-1.764,4.5A5.35,5.35,0,0,0,5.9,18.782C7.114,20.516,9.538,21,12.366,21s5.251-.484,6.47-2.218A5.35,5.35,0,0,0,19.7,15.62a7.64,7.64,0,0,0-1.767-4.507A30.242,30.242,0,0,0,14.7,7.673h.331a.667.667,0,0,0,0-1.334h-.973L15.3,3.91A2,2,0,0,0,13.52,1H11.205A2,2,0,0,0,9.424,3.91l1.241,2.427Zm1.015,4h0a2,2,0,0,0,0,4h1.334a.667.667,0,1,1,0,1.334h-2a.667.667,0,1,0,0,1.334h.668v.667a.667.667,0,0,0,1.334,0v-.671a2,2,0,0,0,0-4H11.679a.667.667,0,1,1,0-1.334h2a.667.667,0,1,0,0-1.334h-.665V9.67a.667.667,0,1,0-1.334,0Z" transform="translate(-5.024 -1)" fill="#fff" fill-rule="evenodd"/>
</svg>
