<svg xmlns="http://www.w3.org/2000/svg" width="16.132" height="21.99" viewBox="0 0 16.132 21.99">
  <path id="money-bag" d="M11.227,6.871H10.163a.733.733,0,1,0,0,1.467h.364A33.369,33.369,0,0,0,6.97,12.123a8.394,8.394,0,0,0-1.94,4.952,5.882,5.882,0,0,0,.952,3.476c1.34,1.907,4.005,2.439,7.114,2.439s5.774-.532,7.114-2.439a5.882,5.882,0,0,0,.953-3.476A8.4,8.4,0,0,0,19.22,12.12a33.251,33.251,0,0,0-3.554-3.783h.364a.733.733,0,1,0,0-1.467H14.96L16.325,4.2A2.2,2.2,0,0,0,14.365,1H11.82A2.2,2.2,0,0,0,9.862,4.2l1.365,2.669Zm1.116,4.4h0a2.2,2.2,0,1,0,0,4.4h1.467a.733.733,0,0,1,0,1.467h-2.2a.733.733,0,0,0,0,1.467h.735v.733a.733.733,0,0,0,1.467,0V18.6a2.2,2.2,0,0,0,0-4.4H12.341a.733.733,0,0,1,0-1.467h2.2a.733.733,0,1,0,0-1.467H13.81v-.733a.733.733,0,1,0-1.467,0Z" transform="translate(-5.03 -1)" fill="#fff" fill-rule="evenodd"/>
</svg>
