<svg xmlns="http://www.w3.org/2000/svg" width="21.168" height="21.99" viewBox="0 0 21.168 21.99">
  <g id="release-icon" transform="translate(-49.503 -41.486)">
    <g id="Group_1" data-name="Group 1" transform="translate(49.503 41.486)">
      <path id="Path_3" data-name="Path 3" d="M354.5,287.216l-2.192-3.3v9.367h2.954v-5.966H354.7A.235.235,0,0,1,354.5,287.216Z" transform="translate(-336.675 -271.297)" fill="#fff"/>
      <path id="Path_4" data-name="Path 4" d="M112.25,286.122h-9.377v5.966h12.052v-9.431l-2.485,3.37A.235.235,0,0,1,112.25,286.122Z" transform="translate(-100.194 -270.098)" fill="#fff"/>
      <path id="Path_5" data-name="Path 5" d="M64,273.1H52.066L49.5,276.572H61.441Z" transform="translate(-49.503 -261.179)" fill="#fff"/>
      <path id="Path_6" data-name="Path 6" d="M359.363,273.1h-2.994l2.311,3.475H361.7Z" transform="translate(-340.529 -261.179)" fill="#fff"/>
      <path id="Path_7" data-name="Path 7" d="M59.681,113.961c0,.007-.007.014-.01.021s0,.014-.006.021,0,.015-.006.022,0,.015,0,.022,0,.015,0,.023,0,.013,0,.02a.238.238,0,0,0,0,.027s0,0,0,0l.377,1.469a.235.235,0,1,0,.456-.117l-.28-1.093a5.91,5.91,0,0,1,4.165,4.464.235.235,0,1,0,.46-.1,6.432,6.432,0,0,0-4.493-4.819l.75-.78a.235.235,0,1,0-.339-.326L59.723,113.9l0,0a.229.229,0,0,0-.016.021l-.012.016A.225.225,0,0,0,59.681,113.961Z" transform="translate(-59.147 -109.067)" fill="#fff"/>
      <path id="Path_8" data-name="Path 8" d="M215.382,90.575a.234.234,0,0,0,.128-.038l1.024-.666v6.559a.235.235,0,0,0,.47,0V89.87l1.023.666a.235.235,0,1,0,.257-.394l-1.387-.9-.014-.007-.026-.013-.022-.007h0l-.014,0h0l-.023,0-.019,0h0l-.021,0-.021,0h0l-.02.006-.02.006-.024.012,0,0-.013.007,0,0h0l-1.384.9a.235.235,0,0,0,.129.432Z" transform="translate(-206.624 -86.806)" fill="#fff"/>
      <path id="Path_9" data-name="Path 9" d="M87.972,42.772c0,.007,0,.013,0,.02s0,.012,0,.018,0,.006,0,.008,0,.013,0,.02,0,.012,0,.018v0l.376,1.47a.235.235,0,1,0,.456-.117l-.269-1.048c2.483.893,3.8,2.332,4,4.392a.235.235,0,0,0,.234.211H92.8a.235.235,0,0,0,.21-.258c-.229-2.245-1.7-3.862-4.382-4.811l.78-.811a.235.235,0,1,0-.339-.326l-1.036,1.078,0,0,0,0c0,.005-.008.011-.012.017L88,42.679l0,0c0,.005-.005.011-.008.017s-.007.013-.009.019l0,.006v0s0,.009,0,.014,0,.013,0,.02Z" transform="translate(-86.039 -41.489)" fill="#fff"/>
      <path id="Path_10" data-name="Path 10" d="M347.591,118.846a5.909,5.909,0,0,1,4.165-4.464l-.28,1.093a.235.235,0,1,0,.456.117l.376-1.469v0a.237.237,0,0,0,0-.025c0-.007,0-.014,0-.021s0-.015,0-.022a.237.237,0,0,0,0-.024c0-.007,0-.014-.005-.02a.238.238,0,0,0-.006-.023c0-.007-.006-.013-.009-.019s-.007-.015-.011-.022l-.011-.016a.225.225,0,0,0-.017-.022l0,0-1.037-1.078a.235.235,0,0,0-.339.326l.75.78a6.431,6.431,0,0,0-4.493,4.819.235.235,0,1,0,.46.1Z" transform="translate(-331.75 -109.067)" fill="#fff"/>
      <path id="Path_11" data-name="Path 11" d="M321.912,47.763h.024a.235.235,0,0,0,.234-.211c.209-2.059,1.521-3.5,4-4.391l-.269,1.048a.235.235,0,1,0,.456.117l.377-1.47v0c0-.006,0-.012,0-.019s0-.013,0-.019,0-.006,0-.008,0-.012,0-.018,0-.013,0-.02v-.008c0-.007,0-.013,0-.019s0-.01,0-.015v0l0-.006a.209.209,0,0,0-.009-.019c0-.006,0-.012-.008-.017l0,0-.011-.015c0-.006-.008-.012-.013-.017l0,0,0,0-1.037-1.078a.235.235,0,0,0-.339.326l.78.811c-2.68.949-4.154,2.565-4.382,4.811A.235.235,0,0,0,321.912,47.763Z" transform="translate(-307.601 -41.486)" fill="#fff"/>
    </g>
  </g>
</svg>
