<svg xmlns="http://www.w3.org/2000/svg" width="19.803" height="15.093" viewBox="0 0 19.803 15.093">
  <path id="sign_out" d="M19.529,72.192l-6.6,6.6a.945.945,0,0,1-1.611-.668V74.353H5.973a.941.941,0,0,1-.943-.943V69.638a.941.941,0,0,1,.943-.943h5.344V64.923a.945.945,0,0,1,1.611-.668l6.6,6.6a.951.951,0,0,1,0,1.337ZM7.545,78.6V77.025a.473.473,0,0,0-.472-.472h-3.3A1.256,1.256,0,0,1,2.515,75.3V67.752A1.256,1.256,0,0,1,3.772,66.5h3.3a.473.473,0,0,0,.472-.472V64.451a.473.473,0,0,0-.472-.472h-3.3A3.773,3.773,0,0,0,0,67.752V75.3a3.773,3.773,0,0,0,3.772,3.772h3.3a.473.473,0,0,0,.473-.472Z" transform="translate(0 -63.979)" fill="#fff"/>
</svg>
