<svg xmlns="http://www.w3.org/2000/svg" width="21.454" height="21.99" viewBox="0 0 21.454 21.99">
  <g id="Layer_x0020_1" transform="translate(-18.46 -8.35)">
    <path id="Path_15" data-name="Path 15" d="M38.814,16.1a.55.55,0,0,1,1.1,0V25.94a.55.55,0,0,1-.55.55H32.583v2.75h2.63a.55.55,0,0,1,0,1.1H23.161a.55.55,0,0,1,0-1.1h2.63V26.49H19.01a.55.55,0,0,1-.55-.55V16.1a.55.55,0,0,1,1.1,0V25.39H38.814ZM31.483,26.49H26.891v2.75h4.591ZM29.737,9.514V11.9h2.546a4.206,4.206,0,0,0-2.546-2.385Zm0,3.485V15.38h3.405A9.594,9.594,0,0,0,32.722,13Zm0,3.482v2.382h2.985a9.594,9.594,0,0,0,.42-2.382Zm0,3.481v2.385a4.2,4.2,0,0,0,2.546-2.385Zm-1.1,2.385V19.962H26.091A4.2,4.2,0,0,0,28.637,22.346Zm0-3.485V16.48H25.232a9.594,9.594,0,0,0,.42,2.382Zm0-3.482V13H25.652a9.594,9.594,0,0,0-.42,2.382Zm0-3.482V9.514A4.206,4.206,0,0,0,26.091,11.9Zm4.109-1.385a7.8,7.8,0,0,1,.742,1.385h.773A6.517,6.517,0,0,0,32.746,10.514ZM33.867,13a10.836,10.836,0,0,1,.376,2.382h1.4A6.439,6.439,0,0,0,34.968,13Zm.376,3.482a10.852,10.852,0,0,1-.376,2.382h1.1a6.439,6.439,0,0,0,.676-2.382Zm-.755,3.481a7.792,7.792,0,0,1-.742,1.385,6.523,6.523,0,0,0,1.515-1.385Zm-7.86,1.385a7.792,7.792,0,0,1-.742-1.385h-.773A6.523,6.523,0,0,0,25.628,21.346Zm-1.121-2.485a10.852,10.852,0,0,1-.376-2.382h-1.4a6.439,6.439,0,0,0,.676,2.382h1.1Zm-.376-3.482A10.836,10.836,0,0,1,24.507,13h-1.1a6.439,6.439,0,0,0-.676,2.382Zm.755-3.482a7.8,7.8,0,0,1,.742-1.385A6.517,6.517,0,0,0,24.113,11.9Zm4.3-3.548a7.58,7.58,0,1,1-7.58,7.58,7.58,7.58,0,0,1,7.58-7.58Z" fill="#fff"/>
  </g>
</svg>
