<svg xmlns="http://www.w3.org/2000/svg" width="20" height="20" viewBox="0 0 20 20">
  <g id="user" transform="translate(-1643 -23)">
    <circle id="Ellipse_2" data-name="Ellipse 2" cx="10" cy="10" r="10" transform="translate(1643 23)" fill="#fff"/>
    <g id="icons" transform="translate(1647.008 27)">
      <g id="user-2" data-name="user" transform="translate(0 0)">
        <ellipse id="Ellipse_1" data-name="Ellipse 1" cx="2.998" cy="3.598" rx="2.998" ry="3.598" transform="translate(2.993 0)" fill="#9b9b9b"/>
        <path id="Path_17" data-name="Path 17" d="M13.871,17.362a5.466,5.466,0,0,0-2.88-2.518,1.342,1.342,0,0,0-1.079.06,3.68,3.68,0,0,1-3.84,0,1.35,1.35,0,0,0-1.079,0,5.466,5.466,0,0,0-2.88,2.518A1.183,1.183,0,0,0,3.252,19.1h9.48a1.214,1.214,0,0,0,1.139-1.74Z" transform="translate(-2.002 -7.108)" fill="#9b9b9b"/>
      </g>
    </g>
  </g>
</svg>
